<svg width="80" height="42" viewBox="0 0 80 42" fill="none" xmlns="http://www.w3.org/2000/svg">
<path d="M43.3333 3.20786C43.3333 4.05863 42.9821 4.87456 42.357 5.47615C41.7319 6.07774 40.8841 6.41571 40 6.41571C39.1159 6.41571 38.2681 6.07774 37.643 5.47615C37.0179 4.87456 36.6667 4.05863 36.6667 3.20786C36.6667 2.35708 37.0179 1.54115 37.643 0.93956C38.2681 0.33797 39.1159 0 40 0C40.8841 0 41.7319 0.33797 42.357 0.93956C42.9821 1.54115 43.3333 2.35708 43.3333 3.20786ZM76.6667 41.7021C75.7826 41.7021 74.9348 41.3642 74.3096 40.7626C73.6845 40.161 73.3333 39.3451 73.3333 38.4943C73.3333 37.6435 73.6845 36.8276 74.3096 36.226C74.9348 35.6244 75.7826 35.2864 76.6667 35.2864C77.5507 35.2864 78.3986 35.6244 79.0237 36.226C79.6488 36.8276 80 37.6435 80 38.4943C80 39.3451 79.6488 40.161 79.0237 40.7626C78.3986 41.3642 77.5507 41.7021 76.6667 41.7021ZM0 38.4943C0 39.3451 0.35119 40.161 0.976311 40.7626C1.60143 41.3642 2.44928 41.7021 3.33333 41.7021C4.21739 41.7021 5.06523 41.3642 5.69036 40.7626C6.31548 40.161 6.66667 39.3451 6.66667 38.4943C6.66667 37.6435 6.31548 36.8276 5.69036 36.226C5.06523 35.6244 4.21739 35.2864 3.33333 35.2864C2.44928 35.2864 1.60143 35.6244 0.976311 36.226C0.35119 36.8276 0 37.6435 0 38.4943ZM68.2867 15.8083C67.9792 16.1147 67.6114 16.3591 67.2047 16.5272C66.798 16.6953 66.3606 16.7838 65.918 16.7875C65.4754 16.7912 65.0365 16.7101 64.6268 16.5488C64.2172 16.3875 63.845 16.1493 63.532 15.8481C63.219 15.5469 62.9715 15.1887 62.8039 14.7945C62.6363 14.4003 62.552 13.9778 62.5558 13.5519C62.5597 13.126 62.6516 12.705 62.8263 12.3137C63.001 11.9223 63.255 11.5683 63.5733 11.2724C64.202 10.6881 65.044 10.3647 65.918 10.372C66.792 10.3794 67.628 10.7167 68.2461 11.3115C68.8641 11.9062 69.2147 12.7108 69.2222 13.5519C69.2298 14.393 68.8939 15.2033 68.2867 15.8083ZM11.7133 11.2724C11.395 11.5683 11.141 11.9223 10.9663 12.3137C10.7916 12.705 10.6997 13.126 10.6958 13.5519C10.692 13.9778 10.7763 14.4003 10.9439 14.7945C11.1115 15.1887 11.359 15.5469 11.672 15.8481C11.985 16.1493 12.3572 16.3875 12.7668 16.5488C13.1765 16.7101 13.6154 16.7912 14.058 16.7875C14.5006 16.7838 14.938 16.6953 15.3447 16.5272C15.7514 16.3591 16.1192 16.1147 16.4267 15.8083C17.0339 15.2033 17.3698 14.393 17.3622 13.5519C17.3547 12.7108 17.0041 11.9062 16.3861 11.3115C15.768 10.7167 14.932 10.3794 14.058 10.372C13.184 10.3647 12.342 10.6881 11.7133 11.2724ZM40 12.8314C32.9276 12.8314 26.1448 15.5352 21.1438 20.3479C16.1428 25.1606 13.3333 31.6881 13.3333 38.4943C13.3333 39.3451 13.6845 40.161 14.3096 40.7626C14.9348 41.3642 15.7826 41.7021 16.6667 41.7021H63.3333C64.2174 41.7021 65.0652 41.3642 65.6904 40.7626C66.3155 40.161 66.6667 39.3451 66.6667 38.4943C66.6667 31.6881 63.8572 25.1606 58.8562 20.3479C53.8552 15.5352 47.0724 12.8314 40 12.8314ZM40 19.2471C44.7275 19.2457 49.3027 20.8559 52.9139 23.792C56.5251 26.7282 58.9387 30.8005 59.7267 35.2864H20.2667C21.0548 30.7994 23.4694 26.7263 27.082 23.79C30.6945 20.8537 35.2713 19.2442 40 19.2471Z" fill="white"/>
</svg>
